<svg xmlns="http://www.w3.org/2000/svg" width="1800" height="1800"><path fill="#25A8DB" d="M1112 578h3c-1.519 3.397-3.503 6.016-5.875 8.875l-2.43 2.93c-3.385 4.028-6.817 8.015-10.251 12.001a489 489 0 0 0-8.944 10.694c-8.279 10.173-16.883 20.008-25.82 29.605a361 361 0 0 0-7.88 8.829c-7.164 8.227-14.663 16.035-22.425 23.691-5.67 5.593-11.304 11.158-16.495 17.206-9.675 11.16-20.13 21.575-30.581 32a4730 4730 0 0 0-7.674 7.68l-4.953 4.95-2.28 2.286c-5.734 5.709-11.704 11.055-17.955 16.19-2.628 2.228-4.839 4.62-7.062 7.25-2.588 3.055-4.942 4.753-8.375 6.813a96 96 0 0 0-3.062 3.5c-3.529 4.192-7.465 7.833-11.525 11.493-2.795 2.521-5.53 5.069-8.163 7.757-9.54 9.68-9.54 9.68-14.25 11.25-1.507 1.562-1.507 1.562-3 3.5-3.656 4.317-7.764 7.707-12.184 11.219-2.66 2.154-5.177 4.397-7.691 6.718-4.226 3.858-8.681 7.33-13.247 10.769-3.554 2.703-6.867 5.548-10.128 8.606-5.145 4.779-10.61 9.008-16.214 13.232a494 494 0 0 0-13.911 10.894c-7.893 6.373-16.05 12.371-24.255 18.336q-3.375 2.462-6.737 4.94c-49.17 36.07-106.226 73.71-168.121 81.317-24.457 2.414-45.908-.052-68.512-9.531a227 227 0 0 1-4-2v-3l2.281-.196C617.671 952.114 674.76 923.966 729 890l2.805-1.754A1196 1196 0 0 0 811 834l3.117-2.316c7.435-5.55 14.802-11.188 22.177-16.816 4.615-3.52 9.238-7.026 13.894-10.493 12.947-9.687 25.59-19.75 38.106-29.985 2.327-1.896 4.671-3.77 7.019-5.64 4.217-3.364 8.394-6.775 12.566-10.195a3782 3782 0 0 1 11.183-9.117l2.102-1.71A949 949 0 0 1 932.063 739c6.17-4.92 12.076-10.152 18.024-15.337 2.98-2.59 5.976-5.159 8.976-7.726l1.728-1.48q4.42-3.784 8.846-7.559c6.117-5.222 12.183-10.485 18.14-15.89a423 423 0 0 1 6.16-5.446c3.175-2.76 6.278-5.59 9.375-8.437a212 212 0 0 1 10.875-9.312c6.972-5.627 13.387-11.838 19.887-17.996 6.525-6.156 13.156-12.197 19.934-18.075 3.225-2.82 6.394-5.702 9.574-8.574a406 406 0 0 1 6.105-5.356c4.724-4.107 9.26-8.416 13.823-12.7 3.113-2.916 6.23-5.797 9.49-8.55a129 129 0 0 0 7.707-7.312l2.041-2.076a568 568 0 0 0 4.063-4.197l1.896-1.942 1.702-1.77z"/><path fill="#DF8F22" d="M1109 568h3c-.258 1.738-.258 1.738-1 4-4.95 6.02-11.178 10.829-17.234 15.676-3.624 3.045-6.906 6.359-10.184 9.77-2.715 2.686-5.553 5.167-8.439 7.667-3.636 3.201-7.132 6.55-10.643 9.887-4.796 4.56-9.638 9.034-14.638 13.37-2.718 2.38-5.35 4.848-7.987 7.317-8.536 7.93-17.365 15.505-26.437 22.813-4.727 3.831-9.166 7.908-13.607 12.06-4.153 3.866-8.462 7.476-12.886 11.03-3.544 2.9-6.995 5.898-10.445 8.91-4.316 3.767-8.658 7.474-13.125 11.063-4.062 3.281-7.888 6.736-11.687 10.312-4.947 4.645-10.083 8.91-15.457 13.05A292 292 0 0 0 926.5 734.5c-4.895 4.19-9.899 8.208-14.986 12.162-4.764 3.716-9.427 7.544-14.077 11.4a548 548 0 0 1-18.14 14.387c-3.772 2.891-7.436 5.912-11.11 8.926-6.488 5.31-13.116 10.39-19.847 15.387-4.107 3.051-8.17 6.158-12.23 9.269-7.79 5.965-15.608 11.857-23.63 17.504a477 477 0 0 0-7.492 5.399c-11.443 8.382-23.175 16.279-35.011 24.095a1593 1593 0 0 0-8.508 5.678C750.1 866.339 738.633 873.779 727 881l-2.678 1.671c-46.573 29.011-46.573 29.011-58.606 31.872L664 915l-1 2c-2.02.973-2.02.973-4.812 2.063-3.884 1.554-7.705 3.156-11.485 4.949-29.535 13.95-62.689 24.06-95.703 21.988-19.347-1.918-37.984-7.576-54.395-18.121C494 926 494 926 493 924l2.57.063c29.534.628 57.041-2.253 85.43-11.063l2.83-.874c12.656-3.987 24.893-8.97 37.107-14.126l2.069-.87c8.938-3.775 17.653-7.878 26.304-12.269 4.014-2.035 8.078-3.956 12.154-5.864C682.986 868.911 703.507 857.011 724 845l3.25-1.904c11.892-6.993 23.596-14.179 35.024-21.908 6.027-4.075 12.13-8.004 18.289-11.875C793.935 800.878 806.959 791.934 820 783l4.633-3.164c9.7-6.635 19.324-13.378 28.94-20.132q3.403-2.389 6.81-4.77a1177 1177 0 0 0 24.459-17.65q8.075-5.973 16.22-11.846l2.245-1.62q5.535-3.99 11.084-7.959c9.023-6.465 17.905-13.089 26.715-19.842a995 995 0 0 1 17.582-13.142c7.112-5.205 14.101-10.55 21.042-15.981a794 794 0 0 1 14.887-11.359c10.368-7.745 20.632-15.636 30.883-23.535 12.012-9.256 24.07-18.455 36.219-27.531 5.547-4.16 11.048-8.383 16.56-12.59 4.762-3.633 9.538-7.245 14.346-10.817 4.864-3.615 9.5-7.46 14.098-11.41z"/><path fill="#216772" d="M1144 683c-.133 1.707-.133 1.707-1 4a72 72 0 0 1-5.875 4.688q-1.8 1.337-3.598 2.68l-1.817 1.346c-2.395 1.801-4.71 3.691-7.023 5.598a2208 2208 0 0 1-15.758 12.864c-3.106 2.517-6.202 5.042-9.257 7.62l-2.922 2.454-2.516 2.14c-2.162 1.558-3.628 2.204-6.234 2.61.964-12.67.964-12.67 2-18-6.368 1.775-12.556 3.89-18.75 6.188l-2.43.9a7912 7912 0 0 0-10.69 3.983 3090 3090 0 0 1-8.755 3.241l-2.726 1.023c-5.504 2.025-10.895 3.515-16.649 4.665l.794 1.848 4.831 11.248c.4.931.8 1.862 1.21 2.822l1.112 2.587L1039 752l1.135 2.63C1041 757 1041 757 1041 760l4 2v3l2.25.625c2.75 1.375 2.75 1.375 4.813 4.25L1054 773l2.043 1.797C1058 777 1058 777 1058.828 779.836c2.617 21.95 2.192 44.425-1.828 66.164l-.57 3.09c-3.281 17.08-8.682 32.91-15.43 48.91l-1.366 3.249c-8.125 19.177-17.19 37.664-27.523 55.743-6.078 10.645-11.897 21.424-17.641 32.252a553 553 0 0 1-3.697 6.807c-6.926 12.983-11.551 27.444-11.937 42.215.526 11.976 4.22 23.944 10.664 34.097A207 207 0 0 0 993 1077v2l1.813.875C997 1081 997 1081 1000 1083v2c-6.941-.386-12.11-2.302-18-6-6.198-4.364-10.557-9.136-13.937-15.937-1.081-2.336-2.076-4.685-3.063-7.063l-1.094-2.418c-3.521-9.211-2.828-21.24-1.426-30.887L963 1020c.823-5.276.576-9.507-1.363-14.531-2.015-4.264-4.31-8.37-6.637-12.469l-1.363-2.416a1792 1792 0 0 0-7.496-13.1c-7.918-13.765-15.34-27.798-22.65-41.893-3.81-7.331-7.735-14.593-11.714-21.834q-4.362-7.948-8.597-15.964c-6.97-13.187-14.033-26.26-21.664-39.082-3.06-5.147-6.046-10.251-8.516-15.711.25-3 .25-3 1-5l3 1c5.069 5.996 8.54 13.48 12.176 20.385 1.31 2.487 2.63 4.968 3.95 7.45l2.01 3.786A1382 1382 0 0 0 904 887a3067 3067 0 0 1 14.197 26.267 5403 5403 0 0 1 10.858 20.378c6.606 12.456 13.277 24.858 20.265 37.106 5.704 10.005 11.2 20.12 16.68 30.249h2c42.17-84.623 42.17-84.623 53.535-176.843-1.917-18.57-7.965-36.042-15.586-52.981l-.822-1.83a914 914 0 0 0-4.164-9.12l-1.549-3.394-1.408-3.04c-1.014-2.814-1.215-4.83-1.006-7.792-7.031.96-13.199 3.102-19.645 5.967-3.957 1.7-7.056 2.336-11.355 2.033 1.122-3.028 2.292-4.246 4.813-6.375l1.613-1.27c1.854-1.517 1.854-1.517 4.074-4.418 2.636-3.097 4.944-4.978 8.5-6.937 3.375-.75 3.375-.75 6-1l-.352-3.156L991 727c1.85-2.189 3.43-3.735 5.625-5.5 6.072-5.189 11.455-10.756 16.704-16.775l1.675-1.866 1.463-1.672L1018 700h4q.72 3.563 1.438 7.125l.408 2.016A307 307 0 0 1 1026 721l1.803-.652a8557 8557 0 0 1 37.938-13.61q2.066-.736 4.132-1.474a3896 3896 0 0 1 5.834-2.077l3.39-1.207c2.296-.775 4.542-1.446 6.903-1.98-.43-2.422-.43-2.422-2-5-1.952-1.205-3.915-2.116-6.027-3.008-2.135-1.073-3.455-2.155-4.973-3.992v-2c52.007-3.067 52.007-3.067 71-3M770 473h2l.196 1.721c1.93 16.382 4.9 29.66 14.804 43.279 8.964 11.58 23.074 18.509 36.417 23.993 6.147 2.404 12.364 4.611 18.583 6.82q2.924 1.05 5.847 2.106a1470 1470 0 0 0 30.44 10.564C893.006 566.416 907.1 572.073 921 579l3.012 1.49c12.2 6.072 23.97 12.465 34.988 20.51l1.66 1.209c11.78 8.665 23.356 18.085 33.34 28.791l1.59 1.645C997 634.188 997 634.188 999 637c.337 2.467.337 2.467 0 5-1.41 1.756-1.41 1.756-3.395 3.344l-2.217 1.8L991 649l-2.36 1.887a390 390 0 0 1-7.327 5.613l-2.51 1.953-2.44 1.828-2.178 1.658L972 663c-2.664-.211-2.664-.211-5-1-1.738-1.898-1.738-1.898-3.312-4.375l-1.817-2.75L960 652c-15.926-23.263-37.552-40.317-62-54l-2.616-1.468c-24.956-13.921-50.792-25.467-77.006-36.768A1332 1332 0 0 1 803 553l.677 3.47c7.913 40.648 15.602 81.337 23.287 122.028l4.549 24.09.588 3.11q.574 3.044 1.144 6.087c1.01 5.37 2.059 10.73 3.159 16.083l.703 3.478a674 674 0 0 0 1.354 6.53c1.494 7.443 1.783 14.543 1.539 22.124h-4q-2.793-14.185-5.562-28.375l-.446-2.281a11275 11275 0 0 1-13.937-72.797l-.389-2.063q-3.904-20.715-7.791-41.434l-3.34-17.788q-1.025-5.457-2.046-10.915c-2.633-18.285-2.633-18.285-8.052-35.722-3.015-3.248-6.361-5.856-9.851-8.578C776.229 533.432 770.295 525.75 766 516c-2.652-7.734-4.035-15.845-3-24 1.595-6.73 3.8-12.867 7-19"/><path fill="#EAA729" d="M1148 597h2c17.686 18.334 31.336 44.664 41 68l.84 2.021c20.083 49.138 24.053 104.416 16.946 156.635A329.3 329.3 0 0 1 1178 922l-1.037 2.139c-12.671 26.038-31.59 48.874-51.244 69.92a209 209 0 0 0-6.469 7.316c-3.444 3.95-7.215 7.288-11.25 10.625l-1.628 1.363c-28.075 23.457-58.812 42.9-93.122 55.95l-2.328.898c-3.056 1.101-5.527 1.815-8.79 1.598-2.132-.809-2.132-.809-4.507-3.059L996 1066c.016-2.473.016-2.473 1-5 2.57-1.668 2.57-1.668 6.125-3.187l1.992-.879c3.143-1.377 6.31-2.695 9.476-4.016 36.944-15.439 69.384-37.402 98.407-64.918l2.285-2.156c5.387-5.227 10.067-10.959 14.715-16.844l2.441-3.066c9.925-12.591 18.597-26.028 26.559-39.934l1.088-1.894c22.201-39.088 36.763-86.204 37.15-131.344l.03-2.881c.174-21.304-.062-41.922-4.268-62.881l-.666-3.348c-8.066-39.451-22.527-80.247-48.178-111.93L1143 610c.079-4.251.844-6.723 2.938-10.437z"/><path fill="#F4B723" d="M1109 568h3c-.258 1.738-.258 1.738-1 4-4.95 6.02-11.178 10.829-17.234 15.676-3.624 3.045-6.906 6.359-10.184 9.77-2.715 2.686-5.553 5.167-8.439 7.667-3.636 3.201-7.132 6.55-10.643 9.887-4.796 4.56-9.638 9.034-14.638 13.37-2.718 2.38-5.35 4.848-7.987 7.317-8.536 7.93-17.365 15.505-26.437 22.813-4.727 3.831-9.166 7.908-13.607 12.06-4.153 3.866-8.462 7.476-12.886 11.03-3.544 2.9-6.995 5.898-10.445 8.91-4.316 3.767-8.658 7.474-13.125 11.063-4.062 3.281-7.888 6.736-11.687 10.312-4.947 4.645-10.083 8.91-15.457 13.05A292 292 0 0 0 926.5 734.5c-4.895 4.19-9.899 8.208-14.986 12.162-4.764 3.716-9.427 7.544-14.077 11.4a548 548 0 0 1-18.14 14.387c-3.772 2.891-7.436 5.912-11.11 8.926-6.488 5.31-13.116 10.39-19.847 15.387-4.107 3.052-8.17 6.159-12.233 9.27C827.188 812.863 818.205 819.56 809 826l-3.074 2.16A2213 2213 0 0 1 799 833l-1.75-1.062L795 831c-2.197.298-2.197.298-4 1l-.777-1.574c-1.76-3.206-3.39-5.784-6.313-8.035-4.612-2.681-8.594-4.052-13.91-4.391l1-3c2.345-1.561 4.684-2.976 7.125-4.375 9.072-5.365 17.793-11.195 26.5-17.125l2.061-1.403a5596 5596 0 0 0 11.677-7.977q3.241-2.216 6.485-4.429c9.63-6.584 19.18-13.282 28.725-19.987q3.403-2.389 6.81-4.77a1177 1177 0 0 0 24.459-17.65q8.075-5.973 16.22-11.846l2.245-1.62q5.535-3.99 11.084-7.959c9.023-6.465 17.905-13.089 26.715-19.842a995 995 0 0 1 17.582-13.142c7.112-5.205 14.101-10.55 21.042-15.981a794 794 0 0 1 14.887-11.359c10.368-7.745 20.632-15.636 30.883-23.535 12.012-9.256 24.07-18.455 36.219-27.531 5.547-4.16 11.048-8.383 16.56-12.59 4.762-3.633 9.538-7.245 14.346-10.817 4.864-3.615 9.5-7.46 14.098-11.41z"/><path fill="#49494A" d="M695.281 1151.129c1.719.871 1.719.871 3.907 2.621L701 1155c4.846-.115 9.055-2.152 13.438-4.062 8.4-3.074 18.542-2.72 27.312-1.5 5.024 1.3 8.446 4.73 12.184 8.175 2.185 2.524 3.149 4.192 4.066 7.387 1.16 7.188 1.178 14.312 1.203 21.582l.017 3.913q.015 4.075.02 8.151c.006 3.482.03 6.963.058 10.444.023 3.33.025 6.661.03 9.992l.038 3.788-.01 3.5.011 3.083c-.367 2.547-.367 2.547-1.762 4.375-1.605 1.172-1.605 1.172-3.642 1.56l-2.307.01-2.527.012-2.629-.035-2.629.035-2.527-.012-2.307-.01C737 1235 737 1235 735.4 1233.815 734 1232 734 1232 733.608 1229.533l-.025-2.967-.05-3.367-.01-3.637c-.015-1.231-.03-2.463-.047-3.732q-.058-4.91-.087-9.82c-.032-4.614-.083-9.227-.137-13.84q-.04-3.685-.063-7.369l-.031-3.367-.02-2.967c-.037-2.603-.037-2.603-1.138-5.467-3.166-1.259-6.44-1.166-9.812-1.187l-3.02-.043c-3.595.261-6.722 1.201-10.168 2.23l-.031 2.233q-.146 10.397-.308 20.793-.084 5.346-.158 10.691a6034 6034 0 0 1-.187 12.28l-.05 3.894-.06 3.58-.048 3.169L708 1233l-1 1a91 91 0 0 1-5.129.098l-3.135-.01-3.298-.025-3.311-.014q-4.064-.018-8.127-.049c-1.284-2.569-1.132-4.412-1.142-7.288l-.021-3.348-.013-3.634-.072-7.568c-.035-3.99-.065-7.979-.078-11.969-.015-3.842-.056-7.683-.1-11.525l.006-3.615c-.042-6.456-.042-6.456-2.475-12.31-1.962-1.881-1.962-1.881-4.367-2.302l-2.426.121-2.386.067c-2.599.33-5.057.817-7.609 1.394l-2.451.553L659 1173l-.031 2.137q-.147 9.976-.308 19.951a6162 6162 0 0 0-.158 10.257c-.057 3.932-.122 7.864-.187 11.796l-.05 3.715-.06 3.457-.048 3.042c-.141 2.36-.489 4.385-1.158 6.645-3.812.029-7.625.047-11.437.063l-3.3.025-3.134.01-2.904.016L634 1234l-1-1c-.1-2.55-.136-5.074-.13-7.625l-.005-2.42q-.004-3.977.002-7.955 0-2.753-.003-5.504-.001-5.775.006-11.55.006-7.421-.004-14.841-.005-5.685 0-11.37 0-2.738-.002-5.474-.003-3.817.007-7.636l-.007-2.308c.008-1.773.066-3.545.136-5.317l1-1a57 57 0 0 1 4.035-.098l2.451.01 2.577.025 2.587.014q3.175.02 6.35.049l1 5 2.852-1.059 3.773-1.379 3.727-1.37c10.01-3.27 22.009-3.931 31.93-.063"/><path fill="#2596CE" d="m759 871 2 1v2l3.063-.187c7.217.343 12.627 4.064 18.703 7.687 2.025 1.36 3.53 2.777 5.234 4.5 2.6 1.19 2.6 1.19 5 2-1 3-1 3-2.448 4.328l-1.884 1.352-2.138 1.545-2.342 1.65-2.439 1.736c-9.07 6.406-18.368 12.45-27.749 18.389l-2.559 1.625c-41.001 25.961-87.214 52.177-136.892 54.54-22.726.716-43.086-1.65-63.549-12.165v-3l2.281-.196c71.536-6.321 133.365-40.574 192.934-78.745l2.44-1.556a368 368 0 0 0 4.678-3.05l2.17-1.418c.63-.417 1.258-.835 1.905-1.265z"/><path fill="#49494A" d="M441 1124a85 85 0 0 1 4.988-.145l3.229-.02 3.525-.003 3.616-.01q3.806-.007 7.612-.007c3.854-.002 7.707-.02 11.561-.04q3.7-.005 7.399-.005l3.464-.022c8.141.023 16.315.335 23.84 3.697 5.715 3.816 11.186 7.567 14.766 13.555 2.708 7.017 3.973 14.518 3 22-1.67 7.936-3.737 15.665-9 22-3.146 2.988-5.99 4.463-10 6 2.738 8.984 7.109 16.578 12.125 24.438q2.164 3.434 4.32 6.87l1.923 3.026c1.346 2.199 2.625 4.295 3.632 6.666v3c-5.59.785-11.104 1.14-16.75 1.25l-3.797.078c-3.453-.328-3.453-.328-5.976-1.526-2.863-2.083-3.949-3.825-5.563-6.958l-1.633-3.102-1.656-3.242c-6.236-12.092-6.236-12.092-13.625-23.5-3.003-1.502-5.79-1.093-9.125-1.062l-3.883.027L466 1197l-.076 3.289q-.142 6.018-.296 12.037-.065 2.609-.125 5.218-.088 3.742-.187 7.483l-.05 2.37A174 174 0 0 1 465 1233l-1 1c-1.696.1-3.395.13-5.094.133l-3.12.004-3.286-.012-3.285.012-6.006-.008L441 1234l-1-1a61 61 0 0 1-.127-4.214l-.009-2.753.007-3.045-.006-3.187q-.004-5.244.002-10.488 0-3.627-.003-7.253-.002-7.611.006-15.223.006-9.781-.004-19.562-.005-7.492 0-14.983 0-3.607-.002-7.216-.003-5.033.007-10.064l-.007-3.045.009-2.753.001-2.407L440 1125zm25 20-2 2c-.312 2.88-.312 2.88-.266 6.25l-.007 3.781.023 3.969-.023 3.969.007 3.781.007 3.484L464 1174l2 2c2.424.311 2.424.311 5.234.266l3.18.007 3.336-.023 3.29.023c7.687.013 7.687.013 14.96-2.273 2.371-2.102 3.563-3.293 5-6 1.198-3.664 1.862-7.146 2-11-1.226-4.139-2.757-5.768-5.875-8.75-2.817-2.028-4.871-3.173-8.125-4.25-2.669-.303-2.669-.303-5.45-.266l-3.068-.007-3.17.023-3.205-.023-3.056.007-2.792.007z"/><path fill="#216772" d="M764 529c1.875 1.125 1.875 1.125 3 3 .363 2.879.363 2.879 0 6-1.95 2.02-1.95 2.02-4.687 3.813l-3.063 2.07L756 546c-15.599 10.465-29.712 22.244-43.224 35.291a422 422 0 0 1-4.768 4.506c-7.357 7.037-13.352 14.874-19.394 23.042a342 342 0 0 1-4.684 6.106C676.026 625.108 669.372 635.823 663 647l-1.254 2.159c-21.97 38.02-31.15 84.567-31.996 128.091.054 2.588.14 5.165.25 7.75l.092 2.773c.996 26.89 5.78 54.532 13.908 80.227l1 1c.141 2.67.042 5.324 0 8a579 579 0 0 1-5.25 3l-2.953 1.688C634 883 634 883 630 883c-7.968-24.34-14.025-48.496-17-74l-.29-2.416c-.94-8.84-.954-17.704-.96-26.584l-.002-2.535c.064-50.389 13.36-97.09 38.232-140.735 16.771-28.88 39.048-56.542 65.302-77.362q1.809-1.44 3.604-2.896a375 375 0 0 1 28.364-20.847l2.958-2.002 2.808-1.834 2.477-1.634c3.036-1.399 5.2-1.443 8.507-1.155"/><path fill="#49494A" d="M1188 1118h23v115c-38.64 7.156-38.64 7.156-48.5 4.188l-2.008-.542c-3.589-.99-7.122-2.055-10.492-3.646l-1-2-2.625-.937c-4.372-2.673-6.235-5.802-8.832-10.153-4.952-9.34-5.875-18.899-5.754-29.344.574-9.699 2.423-18.819 7.488-27.195 3.388-4.663 7.074-8.011 12.211-10.648 8.89-3.791 17.927-4.377 27.512-3.723 2.705.566 5.333 1.266 8 2l-.016-2.922q-.026-5.348-.039-10.695-.008-2.317-.02-4.636a1925 1925 0 0 1-.023-6.65l-.015-2.105c0-1.664.051-3.329.113-4.992zm-26 55c-2.702 3.226-4.248 6.876-5 11-.64 13.198-.64 13.198 2 26 2.051 2.775 3.802 4.378 6.86 5.965 4.462 1.877 8.268 2.47 13.14 2.035l8-2v-45c-8.415-3.366-17.368-3.442-25 2"/><path fill="#EAA729" d="M753.83 509.332 756 510a97 97 0 0 1 1.312 4.187l.739 2.356L758 519c-4.116 5.568-10.669 8.669-16.5 12.187-8.943 5.5-17.435 11.071-25.5 17.813l-1.675 1.392C705.627 557.645 697.218 565.21 689 573l-2.871 2.707C678.994 582.619 672.95 590.081 667 598l-1.359 1.78c-7.875 10.327-14.95 21.093-21.641 32.22l-1.406 2.33C622.708 667.697 610.463 706.5 606 745l-.286 2.255c-4.66 42.143.838 85.345 13.101 125.716 1.555 5.208 2.564 9.589 2.185 15.029-3.544 1.62-6.127 2.104-10 2-19.74-45.568-24.154-99.295-19.053-148.44 2.408-19.644 6.95-38.755 13.053-57.56l.885-2.747c14.027-42.746 38.515-80.73 69.295-113.245a160 160 0 0 0 6.382-7.196c7.42-8.576 16.45-15.952 25.438-22.812l1.883-1.463c9.799-7.588 19.921-14.51 30.492-20.975l3.26-2.027 3.076-1.844 2.728-1.65C751 509 751 509 753.831 509.331"/><path fill="#49494A" d="M857 1118c1.696-.1 3.395-.13 5.094-.133l3.12-.004 3.286.012 3.285-.012 3.121.004 2.885.004L880 1118l1 1c.16 2.446.26 4.867.316 7.316l.063 2.216q.098 3.515.183 7.03l.131 4.756q.161 5.841.307 11.682l2.519-.643c6.657-1.63 12.872-2.865 19.731-2.732l2.325.026c5.514.143 10.495.695 15.425 3.349 3.744 2.383 6.28 5.372 8.984 8.828 3.366 7.198 2.16 16.753 2.149 24.48q0 2.065.003 4.13.002 4.3-.006 8.6-.006 5.52.004 11.043.005 4.25 0 8.5 0 2.038.002 4.076.003 2.832-.007 5.665l-.002 3.258L933 1233l-1 1a91 91 0 0 1-5.129.098l-3.135-.01-3.298-.025-3.311-.014q-4.064-.018-8.127-.049c-.948-3.21-1.135-6.115-1.158-9.455l-.03-3.307-.023-3.554-.086-7.44q-.063-5.87-.104-11.739c-.028-3.774-.074-7.548-.122-11.321l-.01-3.561-.05-3.297-.025-2.904c-.21-2.462-.21-2.462-1.724-4.232-1.754-1.453-1.754-1.453-4.777-1.553-9.157.009-9.157.009-17.891 2.363-1.3 2.598-1.153 4.534-1.19 7.444l-.05 3.447-.041 3.738-.056 3.818q-.102 7.089-.19 14.178-.089 6.94-.192 13.879l-.04 3.743-.052 3.439-.038 3.043L881 1233l-1 1c-1.696.1-3.395.13-5.094.133l-3.12.004-3.286-.012-3.285.012-6.006-.008L857 1234l-1-1a68 68 0 0 1-.127-4.441l-.009-2.907.007-3.215-.006-3.364q-.004-5.536.002-11.073l-.003-7.656q-.002-8.036.006-16.07.007-9.303-.002-18.604-.007-8.933-.002-17.865 0-3.809-.002-7.618-.003-5.312.007-10.624l-.007-3.215.009-2.907.001-2.54L856 1119zM1104.625 1150.91c3.249 1.491 5.585 3.15 7.888 5.89 3.317 4.907 4.3 10.78 4.75 16.606.099 3.809.1 7.605.065 11.414l-.006 4.183q-.006 4.345-.04 8.688c-.03 3.718-.04 7.436-.044 11.154q-.008 4.3-.026 8.601-.008 2.059-.015 4.117-.01 2.857-.036 5.715l-.02 3.284L1117 1233l-1 1a91 91 0 0 1-5.129.098l-3.135-.01-3.299-.025-3.31-.014q-4.064-.018-8.127-.049c-.925-5.452-1.118-10.672-1.062-16.195l.011-2.635c.016-3.685.044-7.371.072-11.057.468-15.622.468-15.622-1.021-31.113-3.788-1.894-8.267-1.253-12.426-1.219-4.585.28-7.553 1.011-11.574 3.219-1.19 3.05-1.105 6.029-1.066 9.272l.03 3.185.044 3.422.05 7.166q.046 5.652.113 11.304c.043 3.635.066 7.27.087 10.905l.056 3.428.01 3.176.03 2.796c-.354 2.346-.354 2.346-1.741 4.143-1.613 1.203-1.613 1.203-3.742 1.591l-2.434.01-2.664.012-2.773-.035-2.773.035-2.665-.012-2.433-.01c-2.129-.388-2.129-.388-3.738-1.44-1.391-1.948-1.391-1.948-1.772-5.294q-.026-2.108-.007-4.215l-.016-2.326c-.013-2.54-.005-5.078.006-7.617l-.01-5.286q-.005-5.54.017-11.079c.017-4.74.007-9.48-.01-14.221-.012-3.638-.008-7.276 0-10.915q.004-2.622-.008-5.245c-.007-2.44.004-4.879.02-7.319l-.018-2.202c.026-2.01.026-2.01.407-5.229 3.117-2.078 4.361-2.535 8-3 8.967-.344 8.967-.344 13 1 1.188 2.063 1.188 2.063 2 4l2.414-1.059 3.211-1.379 3.164-1.37c10.038-3.725 22.687-3.56 32.836-.282M575.875 1148.813l2.855-.038c6.87-.014 13.324.523 19.688 3.268 5.801 3.752 9.766 8.233 13.582 13.957 1.287 7.02 1.145 14.063 1.133 21.18l.003 3.785q0 4.946-.009 9.89-.003 4.05.007 8.1c.004 3.22.001 6.441-.001 9.662l.006 3.671-.01 3.38-.002 2.981C613 1231 613 1231 612 1233c-2.879.816-2.879.816-6.562 1.563l-3.63.753c-8.35 1.5-16.332 1.867-24.808 1.871l-3.445.038c-8.93.015-16.436-1.222-24.578-5.041C547 1231 547 1231 544.625 1228.313c-2.91-5.93-5.163-11.582-4.844-18.278.556-5.166 1.363-10.091 3.969-14.66 3.855-4.864 9.77-7.407 15.402-9.706 9.2-3.331 19.209-2.93 28.848-2.669a212 212 0 0 0-.312-4.312l-.176-2.426c-.36-2.304-.36-2.304-1.805-3.992-1.962-1.46-3.297-1.9-5.707-2.27-10.588-.683-21.418.446-32 1-1.475-2.95-1.287-5.655-1.375-8.937l-.148-3.778L547 1155c4.09-3.265 8.91-4.624 14.016-5.543 4.939-.67 9.883-.641 14.859-.645M567 1202c-2.317 1.801-2.317 1.801-4 4-.75 3.457-.75 3.457 0 7 2.188 2.939 2.188 2.939 5 5 3.004 1.001 5.108 1.166 8.25 1.188l2.766.042c3.714-.186 3.714-.186 9.984-2.23v-18c-7.675-.299-14.851-.105-22 3M985.125 1148.688l3.09-.05c7.85-.004 14.131 1.284 20.972 5.175 4.224 3.285 7.91 6.168 10.125 11.124 1.727 7.693 1.834 15.06 1.82 22.926l.004 3.722q0 3.88-.006 7.759c-.005 3.972 0 7.944.007 11.916q0 3.77-.004 7.54l.006 3.615-.01 3.328-.002 2.938C1021 1231 1021 1231 1020 1233c-2.804.627-5.54 1.133-8.375 1.563l-2.5.391c-17.197 2.637-34.024 4.048-50.562-2.266-3.26-2.147-5.547-4.381-7.563-7.688-2.185-4.397-3.855-8.683-4.164-13.617.329-5.03 1.529-9.746 3.742-14.278 3.474-5.144 8.548-8.151 13.985-10.918 9.844-3.19 21.184-3.578 31.437-3.187a478 478 0 0 0-.875-4.875l-.492-2.742L994 1173c-1.784-2.084-1.784-2.084-3.87-2.617-2.122-.381-4.065-.512-6.22-.516l-2.36-.006-2.487.014-2.549.006c-6.875.047-13.67.431-20.514 1.119-1.533-3.065-1.103-6.268-1.062-9.625l.013-2.14q.02-2.618.049-5.235c9.59-4.688 19.578-5.346 30.125-5.312M973 1203c-2.012 2.447-2.32 3.77-3 7 .653 2.875 1.571 4.454 3.375 6.75 1.928 1.483 3.239 1.786 5.625 2.25 1.768.116 3.54.175 5.313.188l2.738.042c3.685-.19 3.685-.19 9.949-2.23v-17c-3.401-1.7-7-1.319-10.746-1.273-4.917.413-9.119 1.527-13.254 4.273M1328.563 1148.688l3.248-.05c7.316-.004 13.519.886 20.03 4.337C1353.5 1154 1353.5 1154 1356 1156l1 3 1.875.688c2.125 1.312 2.125 1.312 3.02 2.968 3.33 8.53 3.254 16.943 3.238 25.989l.003 3.654q0 3.81-.006 7.618c-.005 3.9 0 7.799.007 11.698q0 3.702-.004 7.405l.006 3.547-.01 3.268-.002 2.884C1365 1231 1365 1231 1364 1233c-2.95.628-5.833 1.135-8.812 1.563l-2.633.391c-15.505 2.254-32.511 4.564-47.555-.954-4.371-2.342-7.352-4.799-10-9-2.533-6.197-3.86-12.32-3-19 1.016-4.826 3.096-8.432 6.188-12.25 3.506-3.749 6.978-6.049 11.812-7.75 10.186-2.996 20.458-3.147 31-3l-2-11c-9.385-2.422-17.719-2.192-27.305-1.223-3.911.323-7.772.287-11.695.223-1.135-3.61-1.1-6.984-1.062-10.75l.027-3.547.035-2.703c9.589-4.586 19.026-5.344 29.563-5.312M1319 1202l-2.187 2.125c-.99 3.501-.828 6.299-.43 9.887L1317 1216c3.09 2.06 4.398 2.53 8 3 5.725.355 10.607.022 16-2 1.485-2.97 1.17-5.698 1.188-9l.042-3.812-.23-3.188-2-2c-7.128-.953-14.48-.079-21 3"/><path fill="#EAA729" d="M1196 504c-.636 3.275-1.821 5.57-3.633 8.36l-1.67 2.593-1.822 2.797-3.855 5.992-2.018 3.132c-3.187 4.975-6.314 9.987-9.44 15.001l-1.878 3.012-3.784 6.068q-3.81 6.104-7.63 12.202-3.744 5.986-7.48 11.976l-3.5 5.605c-9.729 15.576-19.218 31.293-28.29 47.262h-2c-.104-14.091-.1-28.167.438-42.25l.118-3.22c.233-5.563.66-11.017 1.444-16.53l-2.629.048c-9.576.097-19.015-.399-28.554-1.22-2.408-.205-4.816-.396-7.225-.586l-4.658-.39-2.15-.168c-4.186-.373-7.854-1.198-11.784-2.684v-2l3.367-1.386c29.747-12.252 29.747-12.252 59.24-25.099 4.018-1.794 8.041-3.575 12.065-5.355l11.73-5.195c7.705-3.414 15.397-6.847 23.024-10.434l3.341-1.566a625 625 0 0 0 6.003-2.867c4.577-2.158 8.038-3.715 13.23-3.098M901.438 469.813l2.257.001c54.183.119 108.928 14.267 155.91 41.51 9.69 5.799 19.18 12.135 27.95 19.258l2.007 1.62L1091 534c.215 2.714.215 2.714 0 5-2.562 1.563-2.562 1.563-6 3-4.099-.169-6.57-.735-10.078-2.898a222 222 0 0 1-3.172-2.477c-8.452-6.364-17.521-11.483-26.75-16.625l-1.972-1.117c-43.852-24.812-94.984-34.99-145.02-34.876-33.08.569-64.812 7.335-96.227 17.329l-3.468 1.101-2.825.934c-2.592.655-4.825.749-7.488.629-1.616-2.895-2.891-5.415-3.5-8.687L785 493c23.917-16.674 65.193-20.153 93.297-22.594 7.71-.545 15.415-.605 23.14-.594M675 988c2.353-.073 4.708-.084 7.063-.062l3.91.027L689 988l1 3c1.31.71 2.648 1.372 4 2 1.263 1 2.49 2.046 3.688 3.125l2.074 1.863L702 1000l2.52 2.168 2.48 2.144 2.313 1.989L711 1008v2l1.938.313L715 1011l1 3c1.324.369 2.66.695 4 1 1.67 1 3.301 2.068 4.902 3.176l2.913 1.991 3.122 2.145c44.615 30.069 95.87 48.24 149.637 52.49 6.992.405 13.987.44 20.989.448l2.438.006c16.858.01 33.365-1.437 49.999-4.256 3.133-.46 5.889-.68 9 0 2.062 1.47 3.496 3.03 5.102 4.98L969 1078a81 81 0 0 1-1 5c-61.043 9.688-120.293 8.17-178.812-13.875-38.443-14.972-71.969-36.472-102.188-64.437l-1.889-1.742c-9.395-8.797-9.395-8.797-11.111-13.946z"/><path fill="#49494A" d="m839 1151 1 1a63 63 0 0 1 .098 4.254l-.01 2.588-.025 2.72-.014 2.733q-.018 3.352-.049 6.705l-2.152-.048c-3.262-.063-6.523-.101-9.785-.14l-3.385-.076c-6.637-.058-12.66.218-18.678 3.264-2.216 2.16-3.555 3.74-4.582 6.648-1.57 8.83-1.38 19.887 1.582 28.352 2.213 2.656 3.92 4.46 7 6 2.823.1 5.615.141 8.438.125l2.448-.006c6.077-.044 12.08-.375 18.114-1.119 2.163 4.984 3.018 9.572 3 15l-.812 2.938c-2.882 2.716-5.598 3.365-9.364 4.436-4.556 1.01-8.984 1.115-13.636 1.063l-2.913-.022c-9.702-.224-17.77-2.101-26.212-7.102-4.573-3.35-7.49-7.293-10.063-12.313-4.694-10.832-5.756-21.278-5-33 1.125-8.746 3.746-15.897 9-23 4.424-4.963 9.088-9.08 15.438-11.25 12.27-3.554 28.336-3.531 40.562.25"/><path fill="#2596CE" d="M860 849h4v2c-1.478 1.44-1.478 1.44-3.516 3.117-4.394 3.74-8.317 7.778-12.234 12.008l-2.1 2.247a957 957 0 0 0-9.431 10.237C830.155 885.84 823.3 892.515 816 899l-5 4.5-2.441 2.188a735 735 0 0 0-6.97 6.398 299 299 0 0 1-15.972 13.754c-2.465 2.035-4.788 4.16-7.117 6.347-23.165 21.067-51.969 39.08-82.5 46.813-13.933 2.554-28.4 1.84-42-2 1.765-2.144 3.07-3.028 5.682-4.068l3.26-.99c1.21-.38 2.42-.76 3.667-1.15l1.951-.604c55.433-17.304 105.292-52.277 150.595-87.867a482 482 0 0 1 11.927-9.079c8.666-6.376 17.017-12.726 24.606-20.383 1.373-1.355 2.837-2.616 4.312-3.859"/><path fill="#216772" d="M719 982c2.2 1.395 3.907 2.969 5.762 4.797 2.653 2.612 5.488 4.967 8.363 7.328l2.945 2.445c1.534 1.272 3.07 2.54 4.632 3.777 1.468 1.175 2.887 2.41 4.298 3.653v2l1.625.25c3.248 1.026 5.663 2.716 8.375 4.75v2l2.125.25c3.583.935 5.956 2.494 8.875 4.75l1 3 2.5.23c4.38.964 7.632 2.878 11.5 5.082 38.889 21.232 83.184 32.144 127.375 31.949 2.859-.01 5.716 0 8.574.012 10.843.006 21.513-.5 32.298-1.662l2.643-.28 2.338-.265L956 1056l1 1c.04 1.666.043 3.334 0 5q-6.187.974-12.375 1.938l-3.504.552A872 872 0 0 1 931 1066l-2.378.343c-9.163 1.115-18.469.901-27.684.907l-2.84.002c-14.907-.017-29.39-.63-44.098-3.252l-2.968-.52c-30.92-5.58-60.249-15.81-88.032-30.48l-3.355-1.594L757 1030l-1-2c-2.08-1.054-2.08-1.054-4.5-2-2.469-1-2.469-1-4.5-2l-1-2c-1.816-.891-1.816-.891-4.008-1.707-5.277-2.259-9.427-5.386-13.867-8.98l-2.364-1.88A1241 1241 0 0 1 719 1004l-3.434-2.742c-11.721-9.447-11.721-9.447-13.879-14.07L701 985c5.797-2.303 11.747-4.53 18-3"/><path fill="#EAA728" d="M860 755c2.48.016 2.48.016 5 1 2.238 2.11 2.238 2.11 4.313 4.75l2.113 2.61C873 766 873 766 873.23 768.827L873 771h5c-1.312 2.976-2.6 4.782-5.133 6.813l-1.917 1.55-2.075 1.637-2.171 1.737c-6.03 4.797-12.176 9.433-18.364 14.025-4.107 3.052-8.17 6.159-12.233 9.27C827.188 812.863 818.205 819.56 809 826l-3.074 2.16A2213 2213 0 0 1 799 833l-1.75-1.062L795 831c-2.197.298-2.197.298-4 1l-.777-1.574c-1.76-3.206-3.39-5.784-6.313-8.035-4.612-2.681-8.594-4.052-13.91-4.391l1-3c2.345-1.561 4.684-2.976 7.125-4.375 9.072-5.365 17.793-11.195 26.5-17.125l2.061-1.403a5596 5596 0 0 0 11.677-7.977q3.241-2.216 6.485-4.429c7.334-5.015 14.62-10.1 21.902-15.191l2.604-1.82 2.443-1.711 2.167-1.518a93 93 0 0 0 4.144-3.138z"/><path fill="#49494A" d="m1285 1149 2 2c.259 1.848.259 1.848.266 4.063l.007 2.414-.023 2.523.023 2.523-.007 2.415-.007 2.214L1287 1169l-2 2c-1.86.455-1.86.455-4.105.746l-2.483.35q-2.57.338-5.14.672l-2.502.353-2.263.295c-3.389.79-6.336 2.153-9.507 3.584l-.031 2.075q-.163 10.656-.341 21.314-.066 3.981-.125 7.962-.088 5.711-.187 11.422l-.05 3.615-.06 3.336-.048 2.947C1258 1232 1258 1232 1257 1234c-3.812.029-7.625.047-11.437.063l-3.3.025-3.134.01-2.904.016L1234 1234l-1-1c-.1-2.52-.136-5.013-.13-7.533l-.005-2.39q-.004-3.93.002-7.858 0-2.718-.003-5.437-.002-5.704.006-11.41.006-7.329-.004-14.658-.004-5.616 0-11.231 0-2.704-.002-5.407-.003-3.77.007-7.543l-.007-2.28c.008-1.751.066-3.503.136-5.253l1-1c2.99-.127 5.947-.185 8.938-.187l2.537-.038 2.427-.005 2.234-.013 1.864.243 2 2v4l2.813-1.25c9.084-3.862 18.1-7.64 28.187-6.75"/><path fill="#25A8DB" d="M1153 1280c2.768-.196 5.437-.265 8.206-.247l2.602-.008c2.893-.005 5.787.003 8.68.012q3.102-.001 6.203-.006c5.628-.005 11.256.003 16.884.013 5.877.009 11.754.007 17.632.007q14.805.002 29.61.023 17.144.023 34.287.02 16.46 0 32.92.013 7.02.006 14.04.006 8.258.002 16.515.017 3.04.004 6.08.004 4.131 0 8.262.012l2.463-.004c1.872.008 3.745.067 5.616.138l1 1q.061 3.5 0 7-41.436.035-82.872.052-19.239.007-38.476.023-16.762.015-33.523.02-8.88 0-17.762.01-8.348.01-16.697.008-3.074 0-6.147.006-4.178.006-8.354.001l-2.491.01a172 172 0 0 1-5.678-.13l-1-1c-.187-2.437-.187-2.437 0-5zM441 1280c2.691-.1 5.356-.134 8.048-.127l2.587-.005c2.883-.004 5.765 0 8.648.003l6.173-.006q8.407-.004 16.816 0c5.852.003 11.703 0 17.555 0q14.745-.004 29.488.005 17.072.007 34.145-.002 14.63-.007 29.259-.003 8.75.003 17.5-.001 8.224-.004 16.448.005 3.028 0 6.056-.002 4.115-.002 8.229.006l2.453-.007c1.866.007 3.73.065 5.595.134l1 1q.062 3.5 0 7-41.045.035-82.09.052-19.057.007-38.113.023-16.603.015-33.206.02-8.798 0-17.594.01-8.27.01-16.54.008-3.045 0-6.089.006-4.137.006-8.275.001l-2.468.01A168 168 0 0 1 441 1288l-1-1c-.125-3-.125-3 0-6z"/><path fill="#216772" d="M997.414 508.137 999 509v2c-8.39-1.29-16.612-3.006-24.875-4.937A318 318 0 0 0 938 500l-3.406-.398c-39.855-3.881-81.275 2.908-118.969 15.886l-2.061.709a404 404 0 0 0-5.337 1.92c-3.601.985-6.512 1.254-10.227.883l-2-3c.375-2.687.375-2.687 1-5 60.2-21.3 140.072-31.277 200.414-2.863"/><path fill="#25A8DB" d="M833 1263c3.147-.472 4.992-.725 8 0 5.252 4.294 8.574 10.947 11.875 16.75l1.508 2.574c3.617 6.29 3.617 6.29 3.617 9.676h2l-.492-1.691c-1.823-8.286-.54-17.976.492-26.309l1-1c3.438-.187 3.438-.187 7 0l2 2c.26 1.815.26 1.815.275 4.035l.029 2.518-.003 2.724.013 2.795q.008 2.93.002 5.858c-.003 2.992.02 5.983.045 8.974q.004 2.842.002 5.686l.028 2.718-.019 2.528.002 2.222c-.374 1.942-.374 1.942-1.718 3.675C867 1310 867 1310 864.125 1310.438c-3.125-.438-3.125-.438-5.612-2.151-4.129-3.758-6.538-8.435-9.326-13.225l-1.81-2.998-1.709-2.904-1.554-2.636c-1.205-2.73-1.34-4.574-1.114-7.524h-3v30h-8l-1-1a56 56 0 0 1-.145-4.03l-.02-2.588-.003-2.816-.01-2.873q-.007-3.015-.007-6.03c-.002-3.084-.02-6.167-.04-9.25q-.005-2.924-.005-5.847l-.022-2.809.01-2.599-.005-2.292L831 1265zM1057.05 1261.612l2.337-.01 2.595-.012 2.705.035 2.647-.035c5.893.026 10.32.89 15.666 3.41 2.523 2.346 4.452 4.904 6 8 .294 4.338.333 7.763-1.313 11.812-1.687 3.188-1.687 3.188-3.437 4.813L1083 1291c.552 4.783 2.674 8.43 4.941 12.598C1089 1306 1089 1306 1089 1310c-3.128.5-5.887.657-9 0-2.657-2.275-4.274-4.983-6-8l-1.254-2.09A164 164 0 0 1 1070 1295h-7l-1 14h-9c-.759-3.034-1.131-5.062-1.161-8.078l-.03-2.397-.012-2.56-.017-2.652q-.014-2.77-.02-5.54c-.01-2.829-.041-5.657-.073-8.486l-.015-5.385-.038-2.566c.01-2.387.01-2.387.366-6.336 1.663-2.054 2.43-2.892 5.05-3.388M1064 1270l-2 2c-.358 2.564-.358 2.564-.313 5.437l-.05 2.934c.176 2.618.176 2.618 1.539 4.484 1.833 1.35 1.833 1.35 4.418 1.325l2.906-.305 2.906-.258c2.596-.445 2.596-.445 4.414-1.922 1.299-1.628 1.299-1.628 1.578-3.633-.023-2.06-.083-4.024-.398-6.062-1.106-2.025-1.106-2.025-3-3-3.792-1.545-7.984-1.194-12-1M724 1263c4.177-.395 8.369-.419 12.563-.5l3.54-.164c3.434-.054 6.521.026 9.897.664 3.259 1.873 5.724 4.01 8 7 1.536 4.608 1.409 9.183 1 14-1.383 3.08-2.638 4.638-5 7 .068 3.422.487 6.095 2.188 9.098a118 118 0 0 0 2.753 4.007C760 1306 760 1306 760 1310c-3.38.29-6.626.4-10 0-2.62-2.184-3.74-4.52-5.352-7.488-1.465-2.597-2.89-5.103-4.648-7.512-3.155-1.728-3.155-1.728-6-2l.035 1.977c.05 4.8-.04 9.3-1.035 14.023q-2.22.039-4.437.063l-2.497.035L724 1309l-1-1a59 59 0 0 1-.13-4.137l-.009-2.66.006-2.89-.003-2.948q0-3.093.006-6.184c.005-3.167 0-6.334-.007-9.501q0-2.996.004-5.993l-.006-2.89.01-2.66.002-2.353L723 1264zm10 8-1 1a104 104 0 0 0-.187 5.938l-.043 3.277.23 2.785 2 2c3.894.255 7.074.201 10.875-.625L748 1284c1.592-2.774 1.592-2.774 2-6-.865-3.173-1.672-4.672-4-7-2.864-.282-2.864-.282-6.062-.187l-3.286.019zM1024.375 1263c3.748 2.856 6.928 6.129 9.625 10 2.4 6.118 1.44 14.5 1 21-.806 4.777-2.254 7.99-5.125 11.875-3.766 2.783-7.316 4.135-11.875 5.125-6.38.608-12.13-.338-18-3-3.635-3.17-5.2-5.995-6.812-10.5-1.846-6.969-2.321-14.722-.649-21.773 1.478-3.72 3.73-6.834 6.461-9.727 7.321-5.125 16.916-5.506 25.375-3m-17.75 8.688c-2.681 2.072-2.681 2.072-3.773 4.59-1.695 5.418-1.334 11.334-.54 16.917.648 2.672 1.733 4.882 3.125 7.243 2.953 1.8 4.637 1.92 8.063 2.062 2.882-.062 2.882-.062 5.5-.5 2.691-1.44 2.691-1.44 4-4 2.719-6.857 2.815-13.723 2-21-1.353-2.927-2.442-3.93-5-6-2.613-1.306-5.012-1.323-7.898-1.281-2.41.206-2.41.206-5.477 1.968M789 1263c2.797-.586 2.797-.586 5.75-.375l2.984.164L800 1263c3.732 6.887 6.386 14.1 9.001 21.464.75 2.101 1.517 4.197 2.284 6.292l1.45 4.06 1.319 3.67c.985 3.66 1.121 6.743.946 10.514h-9l-4-9h-15l-5 9h-8c-.25-5.324.557-9.696 2.266-14.691l.71-2.147a691 691 0 0 1 1.504-4.46 699 699 0 0 0 2.258-6.786q.731-2.18 1.465-4.357l.667-2.027c1.49-4.319 3.317-7.926 6.13-11.532m4 11a540 540 0 0 0-2 5.188l-1.125 2.917c-1.116 3.189-1.116 3.189-.875 7.895h11c-1.146-5.73-2.524-10.71-5-16zM920 1264v7l-3.867.148-5.008.227-2.55.094-2.442.117-2.254.095L902 1272l-2 2c-.167 2.584-.167 2.584 0 5l1.836.262c6.664 1.117 12.491 2.99 18.164 6.738 2.625 2.875 2.625 2.875 4 6 .501 4.01.225 6.427-1.25 10.188-1.798 2.889-3.008 4.792-5.75 6.812-5.217 1.783-10.512 2.465-16 2-4.035-.88-8.02-1.902-12-3a177 177 0 0 1-1-7l1-1a68 68 0 0 1 4.367.008l2.684.05q2.813.067 5.625.157l2.691.043 2.472.067c2.225-.169 2.225-.169 3.95-1.591L912 1297v-4c-1.17-.315-2.338-.63-3.543-.953l-4.644-1.297-2.33-.621c-4.623-1.31-7.97-2.684-11.483-6.129-1.8-3.519-2.187-6.604-2.062-10.5.32-2.312.32-2.312 1.062-4.5 2.012-2.528 4.208-4.381 7-6 7.388-2.594 16.772-1.69 24 1M955.414 1261.832c5.565-.206 10.61.555 15.586 3.168 2.591 2.313 4.44 4.88 6 8 .428 5.042.473 9.632-1.187 14.438-2.012 2.844-3.905 4.647-6.813 6.562-3.56 1.232-7.012 1.1-10.75 1.063l-3.547-.028L952 1295l.035 2.047.028 2.703.035 2.672C952 1305 952 1305 951 1309h-9c-1.15-2.3-1.127-3.601-1.13-6.158l-.009-2.599.006-2.81-.003-2.876q0-3.012.006-6.025c.005-3.085 0-6.17-.007-9.257q0-2.92.004-5.841l-.006-2.816.01-2.589.002-2.29L941 1264l1-1c4.445-.643 8.936-.856 13.414-1.168M953 1270l-2 2c-.244 3.357-.244 3.357-.125 7.125l.055 3.883.07 2.992c2.644 1.322 5.054 1.201 7.965 1.148 2.76-.2 4.672-.688 7.035-2.148 1.445-2.546 1.947-4.69 2.438-7.562-.26-2.601-.26-2.601-2.313-4.688-3.718-2.082-6.725-2.477-10.918-2.867z"/><path fill="#F4B723" d="M1196 504c-.831 3.926-2.33 7.015-4.496 10.379L1190 516c-3.187.188-3.187.188-7 0-8.459 2.655-14.865 8.832-21.373 14.575-2.568 2.25-5.185 4.434-7.814 6.612l-2.668 2.231L1149 541h-2v2a125 125 0 0 1-6 4c-3.088-1.356-5.047-2.827-7.25-5.375l-1.578-1.773L1131 538v-4h-3v-2l2.138-.955q4.188-1.872 8.373-3.746 2.904-1.298 5.81-2.595c7.272-3.25 14.52-6.547 21.742-9.907q3.345-1.55 6.694-3.097a843 843 0 0 0 4.339-2.03 830 830 0 0 1 6.119-2.846l3.535-1.653c3.327-1.199 5.746-1.411 9.25-1.171"/><path fill="#216772" d="m777.688 796 2.312 1c-.193 1.793-.193 1.793-1 4-2.13 1.676-2.13 1.676-4.918 3.313-1.007.6-2.015 1.2-3.053 1.82L767.813 808l-6.231 3.688-2.982 1.738c-2.76 1.613-2.76 1.613-5.776 3.949-3.247 1.869-5.746 2.521-9.46 2.789-4.27-.296-7.695-2.123-11.427-4.101l-2.333-1.17A369 369 0 0 1 724 812v-3c9.572-3.845 19.198-7.538 28.938-10.937l2.54-.928c7.407-2.53 14.597-3.2 22.21-1.135"/><path fill="#25A8DB" d="M1104 1263c2.666-.089 5.306-.115 7.973-.098l2.417.005c2.557.005 5.115.018 7.672.03q2.595.008 5.19.014 6.375.017 12.748.049v8l-13 2-1 36h-8l-1-1a211 211 0 0 1-.098-8.191l.005-2.485c.005-2.629.018-5.258.03-7.887q.008-2.666.014-5.333.017-6.552.049-13.104h-13a177 177 0 0 1-1-7zM670 1263c2.666-.089 5.306-.115 7.973-.098l2.417.005c2.557.005 5.115.018 7.673.03q2.595.008 5.189.014 6.375.017 12.748.049v8l-13 2-1 36h-8l-1-1a211 211 0 0 1-.098-8.191l.005-2.485c.005-2.629.018-5.258.03-7.887q.008-2.666.014-5.333.017-6.552.049-13.104h-13a177 177 0 0 1-1-7z"/><path fill="#216772" d="M865 957c12.704-.516 12.704-.516 17 1.188 3.198 1.932 5.437 4.11 8 6.812 1.718 1.651 1.718 1.651 4 2 1.821-.742 3.64-1.487 5.453-2.25 5.317-1.566 11.08-1.397 16.547-.75 3.43 1.523 3.43 1.523 6 3v1l-3.184.516c-11.39 1.792-11.39 1.792-21.816 6.484a139 139 0 0 0-5 5h-3c-.23-.592-.461-1.183-.7-1.793-2.078-5.036-3.917-8.777-8.3-12.207-4.867-2.827-9.413-5.082-15-6zM1064 1015c-.562 1.71-.562 1.71-2 4a92 92 0 0 1-7 4.625l-2.153 1.31A649 649 0 0 1 1046 1029l-2.193 1.292c-36.619 21.405-36.619 21.405-51.127 21.798L990 1052c.16-2.355.16-2.355 1-5 2.335-1.327 2.335-1.327 5.45-2.324l3.476-1.162 3.761-1.201a910 910 0 0 0 7.731-2.645l1.96-.674c14.662-5.09 28.264-11.956 41.368-20.236l2.36-1.485 2.067-1.33C1061 1015 1061 1015 1064 1015M787 1010c9.737-.468 9.737-.468 14.375 1.25 3.496 2.33 6.654 4.779 9.625 7.75l3.313-1.5c5.209-1.94 10.19-2.136 15.687-1.5 2.572.774 4.616 1.729 7 3v1l-3.508.516q-2.309.365-4.617.734l-2.305.332c-5.058.829-8.45 2.183-12.57 5.418l-1.625 1.75L811 1030h-4l-.883-1.793c-2.694-5.193-5.08-8.976-10.117-12.207-3.287-1.217-6.595-2.172-10-3zM835 995c10.748-.626 10.748-.626 15.5 1.75 2.5 2.25 2.5 2.25 4.375 4.563L857 1003c3.875.126 7.347-.782 11-2 4.52-.301 7.822-.3 12 1.5l3 1.5v2l-3 .48c-9.74 1.659-9.74 1.659-18.29 6.434-2.17 1.378-4.189 1.699-6.71 2.086q-1.189-2.124-2.375-4.25l-1.336-2.39a78 78 0 0 1-2.32-4.587L848 1002c-4.024-2.13-8.593-2.954-13-4zM793 968c9.952-.47 9.952-.47 14.063 1.375C809 971 809 971 811 973a45.6 45.6 0 0 0 7.938-1.562c3.08-.654 5.923-.603 9.062-.438 2.938 1 2.938 1 5 2v2l-1.941.297c-7.285 1.26-11.922 3.612-18.059 7.703-1.937 0-1.937 0-4-1a107 107 0 0 1-4-6c-1.288-1.678-1.288-1.678-3-3-2.264-.784-2.264-.784-4.687-1.187l-2.45-.481L793 971zM757 985c8.573-.621 8.573-.621 12.047.89l1.765 1.11c2.973 2.188 2.973 2.188 6.063 2.313L779 989l1-1c2.144-.1 4.291-.13 6.438-.125l3.558-.008C793 988 793 988 795 989v2l-2.668.48c-6.43 1.063-6.43 1.063-12.168 3.868A626 626 0 0 0 777 999c-1.922-.113-1.922-.113-4-1-1.605-1.777-1.605-1.777-3.187-3.937-2.017-2.45-3.3-3.86-6.266-5.036-2.188-.464-4.32-.825-6.547-1.027z"/><path fill="#EAA729" d="M1109 568h3c-.242 1.723-.242 1.723-1 4-4.538 5.444-9.92 10.352-16 14l-3-1c.323-1.83.323-1.83 1-4a96 96 0 0 1 6.375-5.625c.59-.49 1.18-.98 1.79-1.484 2.543-2.098 5.09-4.061 7.835-5.891M493 924h7l1 3-1 2c-2.375-.812-2.375-.812-5-2z"/></svg>